<?xml version="1.0" encoding="UTF-8"?>
<svg version="1.1" xmlns="http://www.w3.org/2000/svg" width="225" height="225">
<path d="M0 0 C74.25 0 148.5 0 225 0 C225 74.25 225 148.5 225 225 C150.75 225 76.5 225 0 225 C0 150.75 0 76.5 0 0 Z " fill="#FEEF04" transform="translate(0,0)"/>
<path d="M0 0 C3.3 0 6.6 0 10 0 C10.33 5.61 10.66 11.22 11 17 C12.93984166 14.91880554 14.87692294 12.83515453 16.8125 10.75 C17.35970703 10.16347656 17.90691406 9.57695313 18.47070312 8.97265625 C19.26831055 8.11220703 19.26831055 8.11220703 20.08203125 7.234375 C20.56905518 6.71069336 21.0560791 6.18701172 21.55786133 5.64746094 C23.09061826 3.99849531 23.09061826 3.99849531 24.28076172 1.83325195 C26 0 26 0 28.9074707 -0.53344727 C35.92081241 -0.59914716 35.92081241 -0.59914716 38.28686523 -0.57641602 C40.29480593 -0.56262156 42.30288673 -0.5984767 44.31054688 -0.63476562 C55.12522258 -0.61837147 55.12522258 -0.61837147 58.85546875 2.41015625 C61 5 61 5 62 7 C62.33 4.69 62.66 2.38 63 0 C65.97 0 68.94 0 72 0 C72 13.53 72 27.06 72 41 C69.03 41 66.06 41 63 41 C62.67 34.4 62.34 27.8 62 21 C61.01 22.65 60.02 24.3 59 26 C55.94869622 28.14104088 53.41787472 28.22152302 49.75 28.125 C48.1825 28.08375 46.615 28.0425 45 28 C45 32.29 45 36.58 45 41 C26.37323769 43.53549345 26.37323769 43.53549345 20.78027344 39.33154297 C16.63846424 34.74891334 13.74106397 29.50525929 11 24 C10.67 29.61 10.34 35.22 10 41 C6.7 41 3.4 41 0 41 C0 27.47 0 13.94 0 0 Z " fill="#090811" transform="translate(115,93)"/>
<path d="M0 0 C5.5507726 2.3881231 9.05953379 6.67606382 12.703125 11.3671875 C13.13882813 10.82449219 13.57453125 10.28179687 14.0234375 9.72265625 C14.61898437 9.00722656 15.21453125 8.29179688 15.828125 7.5546875 C16.40820312 6.84699219 16.98828125 6.13929687 17.5859375 5.41015625 C22.2097847 0.94839964 26.42602468 0.02787073 32.62890625 0.10351562 C33.43714844 0.12865234 34.24539062 0.15378906 35.078125 0.1796875 C35.90957031 0.19322266 36.74101563 0.20675781 37.59765625 0.22070312 C39.63309566 0.25579691 41.66819791 0.30959522 43.703125 0.3671875 C43.703125 3.6671875 43.703125 6.9671875 43.703125 10.3671875 C42.53394531 10.38136719 41.36476563 10.39554688 40.16015625 10.41015625 C38.61194043 10.45707188 37.06376456 10.50531919 35.515625 10.5546875 C34.74669922 10.56048828 33.97777344 10.56628906 33.18554688 10.57226562 C28.96785788 10.73518065 27.14540602 11.02974771 23.6875 13.66796875 C21.24577885 16.9892863 21.02258414 18.47495682 21.26953125 22.43359375 C21.95117893 25.47337396 23.50544787 27.23414794 25.703125 29.3671875 C28.874863 30.9530565 32.33826322 30.74585195 35.828125 30.9296875 C36.58222656 30.97287109 37.33632812 31.01605469 38.11328125 31.06054688 C39.97634388 31.1666707 41.83971024 31.26743751 43.703125 31.3671875 C43.703125 34.3371875 43.703125 37.3071875 43.703125 40.3671875 C40.49387791 40.47556733 37.2883223 40.55468018 34.078125 40.6171875 C33.17449219 40.65070313 32.27085938 40.68421875 31.33984375 40.71875 C25.57366686 40.80292776 22.23561151 40.29165752 17.703125 36.3671875 C15.8046875 34.4453125 15.8046875 34.4453125 14.328125 32.6171875 C13.82539062 32.00359375 13.32265625 31.39 12.8046875 30.7578125 C12.44117188 30.29890625 12.07765625 29.84 11.703125 29.3671875 C11.14625 30.2746875 10.589375 31.1821875 10.015625 32.1171875 C6.96267518 36.40781968 3.56349672 39.3340338 -1.296875 41.3671875 C-9.6188071 42.3484873 -15.62970089 40.90600035 -22.546875 36.1171875 C-27.61152978 31.05253272 -28.49053929 26.90285568 -28.796875 19.9296875 C-28.58434122 12.51650934 -26.68836814 8.58564528 -21.3828125 3.55078125 C-14.84759581 -1.57045219 -7.93031943 -2.18488392 0 0 Z " fill="#050411" transform="translate(68.296875,93.6328125)"/>
<path d="M0 0 C0.80566406 0.00322266 1.61132812 0.00644531 2.44140625 0.00976562 C3.70404297 0.02233398 3.70404297 0.02233398 4.9921875 0.03515625 C6.26642578 0.04192383 6.26642578 0.04192383 7.56640625 0.04882812 C9.66669659 0.06062751 11.7669508 0.07856319 13.8671875 0.09765625 C13.8671875 3.39765625 13.8671875 6.69765625 13.8671875 10.09765625 C12.69800781 10.11183594 11.52882813 10.12601563 10.32421875 10.140625 C8.77600293 10.18754063 7.22782706 10.23578794 5.6796875 10.28515625 C4.91076172 10.29095703 4.14183594 10.29675781 3.34960938 10.30273438 C-0.86807962 10.4656494 -2.69053148 10.76021646 -6.1484375 13.3984375 C-8.59015865 16.71975505 -8.81335336 18.20542557 -8.56640625 22.1640625 C-7.88475857 25.20384271 -6.33048963 26.96461669 -4.1328125 29.09765625 C-0.9610745 30.68352525 2.50232572 30.4763207 5.9921875 30.66015625 C6.74628906 30.70333984 7.50039063 30.74652344 8.27734375 30.79101562 C10.14040638 30.89713945 12.00377274 30.99790626 13.8671875 31.09765625 C13.8671875 34.06765625 13.8671875 37.03765625 13.8671875 40.09765625 C10.65794041 40.20603608 7.4523848 40.28514893 4.2421875 40.34765625 C3.33855469 40.38117188 2.43492188 40.4146875 1.50390625 40.44921875 C-4.26094851 40.53337721 -7.58076103 40.00043392 -12.1328125 36.09765625 C-17.59597457 30.17923067 -18.61122067 24.91049346 -18.4375 17.03515625 C-17.89194316 11.77542872 -16.11111413 8.81791854 -12.15625 5.37890625 C-5.13201425 -0.03614095 -5.13201425 -0.03614095 0 0 Z " fill="#020210" transform="translate(27.1328125,93.90234375)"/>
<path d="M0 0 C9.24 0 18.48 0 28 0 C28 3.3 28 6.6 28 10 C25.03 10 22.06 10 19 10 C19 20.23 19 30.46 19 41 C15.37 41 11.74 41 8 41 C8 30.77 8 20.54 8 10 C5.36 10 2.72 10 0 10 C0 6.7 0 3.4 0 0 Z " fill="#131112" transform="translate(190,93)"/>
<path d="M0 0 C0.33 0 0.66 0 1 0 C1.2236337 1.41433206 1.42826476 2.83167618 1.625 4.25 C1.79902344 5.43335937 1.79902344 5.43335937 1.9765625 6.640625 C2 9 2 9 1.03515625 10.89453125 C-0.39627521 13.80600882 -0.22852693 16.21129145 -0.1875 19.4375 C-0.18105469 20.54996094 -0.17460938 21.66242188 -0.16796875 22.80859375 C-0.01836796 25.65100884 0.35374193 28.23401547 1 31 C-1.71003427 31.1358035 -4.41318941 31.23444624 -7.125 31.3125 C-7.88554688 31.35439453 -8.64609375 31.39628906 -9.4296875 31.43945312 C-13.5959395 31.52924304 -16.19489224 31.28883246 -19.4921875 28.60546875 C-22.93256701 25.03111807 -23.33827969 23.02326552 -23.29296875 18.0390625 C-22.83745033 14.86865433 -21.24684343 13.1807598 -19 11 C-15.69005287 9.34502644 -12.00877 9.89915665 -8.375 9.9375 C-7.57320312 9.94201172 -6.77140625 9.94652344 -5.9453125 9.95117188 C-3.96350994 9.96296832 -1.98174567 9.98090395 0 10 C0 6.7 0 3.4 0 0 Z " fill="#F6EA09" transform="translate(41,94)"/>
<path d="M0 0 C2.9375 2.5 2.9375 2.5 5 5 C5.33 5.33 5.66 5.66 6 6 C6.60524778 10.71299502 6.42303456 14.16903925 4.25 18.4375 C1.00282049 22.13567666 -0.54010575 22.86728234 -5.4375 23.3125 C-9.29333597 22.97426877 -11.00854728 22.40978135 -14 20 C-16.80398225 16.61588349 -17.64319599 13.48759927 -17.4921875 9.06640625 C-16.57633142 5.22126445 -13.97417091 2.49656682 -11 0 C-7.15437499 -1.281875 -3.84836669 -1.12525342 0 0 Z " fill="#F7EB08" transform="translate(66,103)"/>
<path d="M0 0 C1.01384766 0.02320312 2.02769531 0.04640625 3.07226562 0.0703125 C10.47600716 0.28850716 10.47600716 0.28850716 11.6875 1.5 C11.8125 4.5 11.8125 4.5 11.6875 7.5 C10.6875 8.5 10.6875 8.5 6.87109375 8.59765625 C5.28902953 8.59191138 3.70698969 8.57889593 2.125 8.5625 C-0.659375 8.541875 -3.44375 8.52125 -6.3125 8.5 C-6.3125 15.43 -6.3125 22.36 -6.3125 29.5 C-9.98615774 25.82634226 -12.83403514 22.69470909 -15.75 18.5 C-16.47058594 17.489375 -17.19117188 16.47875 -17.93359375 15.4375 C-19.3125 12.5 -19.3125 12.5 -18.91015625 10.0625 C-18.38292969 9.216875 -17.85570312 8.37125 -17.3125 7.5 C-16.95446289 6.88962891 -16.59642578 6.27925781 -16.22753906 5.65039062 C-11.88294447 -0.64529297 -7.19907548 -0.39191338 0 0 Z " fill="#F9EE07" transform="translate(156.3125,102.5)"/>
</svg>
